<svg width="760" height="760" viewBox="0 0 760 760" fill="none" xmlns="http://www.w3.org/2000/svg">
  <g stroke="#FFE600" stroke-width="4" stroke-linecap="round" stroke-linejoin="round" opacity=".72">
    <path d="M505 129C431 118 351 148 314 211C275 277 312 337 383 339C466 341 529 276 505 210C483 150 412 151 374 189"/>
    <path d="M380 337C287 356 213 423 207 510C200 616 309 686 429 641C544 598 596 489 553 392C522 323 458 300 383 339"/>
    <path d="M506 130L555 87L546 154L612 145L557 185"/>
    <path d="M347 178L328 116L380 151L406 93L423 161"/>
    <path d="M547 393C600 375 640 330 657 276"/>
    <path d="M558 427C619 426 671 398 715 343"/>
    <path d="M431 641C427 679 440 711 470 737"/>
    <path d="M366 655C344 686 314 704 276 710"/>
    <path d="M209 511C159 526 113 519 72 489"/>
    <path d="M230 444C178 426 144 392 127 343"/>
    <path d="M313 211C267 203 229 178 199 137"/>
    <path d="M430 239C451 236 469 244 483 263"/>
    <path d="M396 422C440 419 477 436 506 473"/>
    <path d="M318 501C370 488 415 501 452 542"/>
  </g>
</svg>
