<svg width="640" height="920" viewBox="0 0 640 920" fill="none" xmlns="http://www.w3.org/2000/svg">
  <path d="M327 850C305 711 305 575 330 441C352 321 404 202 497 61" stroke="#FFE600" stroke-width="3" stroke-linecap="round" opacity=".72"/>
  <g stroke="#FFE600" stroke-width="2" stroke-linecap="round" opacity=".52">
    <path d="M343 745C277 740 205 716 123 673"/>
    <path d="M351 694C281 682 218 644 158 580"/>
    <path d="M360 639C296 617 244 574 205 508"/>
    <path d="M369 585C312 554 270 506 243 439"/>
    <path d="M384 526C334 494 302 447 287 386"/>
    <path d="M397 474C356 435 335 390 334 338"/>
    <path d="M416 415C380 375 364 333 371 289"/>
    <path d="M436 362C408 321 399 283 412 248"/>
    <path d="M459 304C438 272 435 240 451 207"/>
    <path d="M485 247C472 221 473 194 490 168"/>
    <path d="M335 742C398 713 453 671 499 615"/>
    <path d="M346 688C414 656 467 609 506 546"/>
    <path d="M358 632C421 600 467 554 495 493"/>
    <path d="M370 576C428 539 467 493 488 437"/>
    <path d="M384 522C433 487 463 443 475 391"/>
    <path d="M401 466C441 432 462 392 465 345"/>
    <path d="M420 410C454 377 468 342 463 304"/>
    <path d="M441 356C468 329 479 298 473 263"/>
    <path d="M464 299C487 276 495 250 488 221"/>
  </g>
  <g stroke="#85B084" stroke-width="1.4" opacity=".28">
    <path d="M209 838C237 748 244 651 229 547"/>
    <path d="M192 775C152 740 122 698 102 648"/>
    <path d="M221 700C181 657 152 606 135 546"/>
    <path d="M233 618C199 569 178 513 169 449"/>
  </g>
</svg>
