<svg width="620" height="860" viewBox="0 0 620 860" fill="none" xmlns="http://www.w3.org/2000/svg">
  <g stroke="#f0d76d" stroke-width="1.1" stroke-linecap="round" stroke-linejoin="round" opacity="0.78">
    <path d="M302 824C318 618 320 408 265 58"/>
    <path d="M290 166C230 110 172 86 94 91C148 153 208 178 290 166Z"/>
    <path d="M303 242C226 190 155 175 65 198C132 257 206 274 303 242Z"/>
    <path d="M313 324C222 288 140 292 42 337C126 385 213 384 313 324Z"/>
    <path d="M321 413C224 399 139 423 48 493C146 516 236 493 321 413Z"/>
    <path d="M326 514C234 534 163 586 97 682C201 667 278 612 326 514Z"/>
    <path d="M291 177C356 132 421 119 503 143C442 199 374 211 291 177Z"/>
    <path d="M305 254C391 218 469 219 561 258C485 308 405 308 305 254Z"/>
    <path d="M315 340C412 322 496 344 578 412C482 438 396 417 315 340Z"/>
    <path d="M321 435C420 440 502 478 578 562C475 572 390 532 321 435Z"/>
    <path d="M326 535C416 574 480 642 528 752C429 716 361 645 326 535Z"/>
  </g>
</svg>
