<svg width="760" height="960" viewBox="0 0 760 960" fill="none" xmlns="http://www.w3.org/2000/svg">
  <g opacity="0.9" stroke="#85b084" stroke-width="1.2" stroke-linecap="round" stroke-linejoin="round">
    <path d="M370 910C377 737 381 585 350 420C327 296 276 166 174 54"/>
    <path d="M354 458C265 442 174 381 82 276C205 263 301 318 354 458Z"/>
    <path d="M368 548C260 555 160 516 44 425C170 392 295 439 368 548Z"/>
    <path d="M380 640C264 677 153 669 31 604C154 543 302 553 380 640Z"/>
    <path d="M388 748C282 817 179 841 54 813C161 720 309 693 388 748Z"/>
    <path d="M342 372C252 329 195 253 151 127C270 166 338 252 342 372Z"/>
    <path d="M350 420C451 395 535 324 605 199C486 208 396 282 350 420Z"/>
    <path d="M370 522C487 509 596 450 711 337C572 326 438 389 370 522Z"/>
    <path d="M382 621C504 634 620 601 729 517C589 481 442 522 382 621Z"/>
    <path d="M389 724C502 769 615 762 727 699C604 637 460 650 389 724Z"/>
    <path d="M174 54C212 157 254 270 342 372" opacity="0.5"/>
    <path d="M82 276C175 319 261 371 354 458" opacity="0.45"/>
    <path d="M711 337C590 385 467 443 370 522" opacity="0.45"/>
  </g>
</svg>
